<?xml version="1.0" encoding="utf-8"?>
<!-- Svg Vector Icons : http://www.onlinewebfonts.com/icon -->
<!DOCTYPE svg PUBLIC "-//W3C//DTD SVG 1.1//EN" "http://www.w3.org/Graphics/SVG/1.1/DTD/svg11.dtd">
<svg version="1.1" xmlns="http://www.w3.org/2000/svg" xmlns:xlink="http://www.w3.org/1999/xlink" x="0px" y="0px" viewBox="0 0 1000 1000" enable-background="new 0 0 1000 1000" xml:space="preserve">
<metadata> Svg Vector Icons : http://www.onlinewebfonts.com/icon </metadata>
<g><g><path d="M929.4,34.2c-1.5-14.9-15.2-25.9-29.7-24L689.6,32.1c-14.8,1.5-25.6,14.8-24,29.6c1.5,14.9,14.8,25.8,29.6,24l145.2-15.1L708.5,233.3c-41.6-26.9-89.9-42.3-139.5-42.3c-78.1,0-151.2,34.8-200.4,95.4c-11.2,13.8-20.7,28.4-28.5,43.5c-51.7,13.9-98.2,43.4-132.9,86.1c-83.7,103.1-73.1,251,18.6,343.1l-51.1,63.1l-82-66.4c-11.5-9.3-28.4-7.7-38,4c-9.4,11.5-7.7,28.5,4,37.9l82,66.5L74.2,946c-9.4,11.7-7.6,28.6,4,38c5,4.1,11,6.1,16.9,6.1c7.9,0,15.7-3.4,21.1-10l66.4-82l81.9,66.4c5,3.9,11,5.9,17,5.9c7.9,0,15.6-3.3,21-10c9.4-11.5,7.6-28.6-3.9-38l-81.9-66.4l50.8-62.7c41.6,27,89.9,42.3,139.7,42.3c78,0,151-34.8,200.1-95.3c11.1-13.7,20.6-28.2,28.5-43.5c51.8-13.9,98.4-43.5,133.1-86.2c83.5-103,73.1-251-18.6-343.1l132.2-163l15.1,145.3c1.4,13.9,13.1,24.2,26.8,24.2c1,0,1.9,0,2.9-0.2c14.7-1.5,25.6-14.8,24-29.6L929.4,34.2z M407.3,374.7c47,0,91.3,15.7,128,45.5c42.2,34.3,68.6,82.9,74.2,137c3.4,31.7-1.5,62.8-12.3,91.7c-9.5,1.4-18.8,3.3-28.6,3.3c-47.1,0-91.4-15.7-128-45.4C371,550.4,349.4,457.5,378.7,378C388.3,376.6,397.7,374.7,407.3,374.7z M407,781.7c-47,0-91.3-15.7-128-45.5c-87.2-70.7-100.6-199.2-29.9-286.3c19-23.4,42.5-41.7,68.7-54.5C298.7,487,329,585.7,406.5,648.6c45,36.5,101.4,56.5,159.1,57.3c-0.2,0.2-0.2,0.4-0.3,0.6C526.4,754.3,468.8,781.7,407,781.7z M726.8,576.8c-19,23.5-42.5,41.6-68.7,54.6c5.4-26,8.1-52.7,5.2-79.9c-7.2-68.4-40.5-129.9-93.8-173.2c-45.1-36.5-101.6-56.7-159.3-57.3c0.1-0.2,0.2-0.3,0.4-0.5c39-47.9,96.6-75.4,158.5-75.4c47,0,91.3,15.7,127.9,45.4C784.1,361.2,797.5,489.7,726.8,576.8z"/></g><g></g><g></g><g></g><g></g><g></g><g></g><g></g><g></g><g></g><g></g><g></g><g></g><g></g><g></g><g></g></g>
</svg>