<?xml version="1.0" encoding="utf-8"?>
<!-- Generator: Adobe Illustrator 21.0.0, SVG Export Plug-In . SVG Version: 6.00 Build 0)  -->
<svg version="1.1" id="Livello_1" xmlns="http://www.w3.org/2000/svg" xmlns:xlink="http://www.w3.org/1999/xlink" x="0px" y="0px"
	 viewBox="0 0 269 291" style="enable-background:new 0 0 269 291;" xml:space="preserve">
<g>
	<path d="M206,4c3,0,6,0,9,0c1.4,0.4,2.8,1,4.3,1.2c22.4,3.9,39,20.2,43.5,42.6c0.3,1.4,0.8,2.8,1.3,4.2c0,3.3,0,6.7,0,10
		c-0.4,1.3-0.9,2.5-1.1,3.8c-3.6,19.2-14.4,32.5-32.1,40.6c-2.1,1-4.3,3.2-5.2,5.4c-9.5,22.8-9.7,45.7,0,68.5c1,2.4,3.5,4.8,5.9,5.9
		c15.8,7.4,26.1,19.3,30.4,36.2c0.7,2.6,1.4,5.1,2,7.7c0,3.3,0,6.7,0,10c-0.6,2.2-1.3,4.4-1.9,6.7c-6.6,27.7-32.9,45.1-60.7,40.2
		c-27.6-4.9-46.4-30.8-43-59c0.3-2.3-0.5-5.3-1.9-7.2c-14.9-19.7-34.6-31.4-59.1-34.5c-2.6-0.3-6,0.6-8.2,2.1
		c-32.1,23.4-76.5,6-83.9-33.1C5,153.8,4.4,152.4,4,151c0-3,0-6,0-9c0.4-1.4,0.9-2.8,1.2-4.3c6.7-39.2,50.7-57.4,83.1-34.2
		c3.3,2.4,6.3,3.1,10.1,2.5c24.2-3.8,43.7-15.3,58.4-34.9c1.2-1.6,1.9-4.3,1.7-6.3c-3.7-28.3,14.8-54.1,42.8-59.5
		C202.9,5,204.4,4.4,206,4z M203.2,146.9c-0.2-12.6-2.5-24.3-7.2-35.5c-1.1-2.5-20.1-14.5-22.9-14.4c-0.5,0-1,0.1-1.5,0.2
		c-24.4,3.4-44.4,14.5-59.6,34.1c-2.1,2.6-3,5.1-2.5,8.6c0.6,4.2-0.2,8.7,0.2,13c0.2,2.6,0.6,5.7,2.1,7.6
		c15.1,19.8,35,31.4,59.7,34.5c2.9,0.4,22.4-10.1,23.8-12.7c0.2-0.3,0.3-0.6,0.4-0.9C200.5,170.2,203.1,158.6,203.2,146.9z
		 M229.4,192c-13.2-9.4-38.4-4.7-52.2,9.2s-18.5,39.3-9.1,52.1c-2.5-14.5-0.3-27.3,9-38.7c4.5,2.5,8.9,3.5,12.9-0.4
		c4.2-4.1,3.3-8.6,0.7-13.2C202,191.6,214.8,189.5,229.4,192z M175.9,36.6c5.5,2.9,9.7,4,13.7,0.4c4.6-4.1,3.4-8.8,1.1-13.6
		c11.1-9,23.6-11.4,38.2-9.1c-14.3-8.9-38-4.3-51.6,9.1c-14.1,13.9-18.7,38.1-10.3,51.5c0.3-6-0.3-12.9,1.2-19.4
		C169.7,49.1,173.2,43.1,175.9,36.6z M14,164.5c0.5-24.2,2.1-30.4,9.9-38.5c4.2,2.6,8.6,3.3,12.6-0.6c4.2-4,3-8.7,0.7-13.3
		c11.2-9,23.9-11.4,38.7-8.9c-14.4-9-37.9-4.7-51.7,8.7C9.8,125.7,5.2,149.4,14,164.5z"/>
</g>
</svg>
